<svg width="142" height="142" viewBox="0 0 142 142" fill="none" xmlns="http://www.w3.org/2000/svg">
<path d="M141.431 71.0001C141.431 109.898 109.898 141.431 71.0005 141.431C32.1027 141.431 0.569824 109.898 0.569824 71.0001C0.569824 32.1023 32.1027 0.569397 71.0005 0.569397C109.898 0.569397 141.431 32.1023 141.431 71.0001Z" fill="white"/>
<path d="M97.7406 125.94C99.7245 127.255 102.295 127.255 104.279 125.94C121.428 114.579 132.857 94.2228 132.857 71.0002C132.857 47.7774 121.428 27.4207 104.279 16.0596C102.295 14.7453 99.7245 14.7453 97.7406 16.0596C80.5921 27.4207 69.1631 47.7774 69.1631 71C69.1631 94.2226 80.5921 114.579 97.7406 125.94Z" fill="#1B1894"/>
</svg>
